<?xml version="1.0" encoding="UTF-8"?>
<svg version="1.1" viewBox="0 0 1600 1600" width="1280" height="1280" xmlns="http://www.w3.org/2000/svg">
<path transform="translate(0)" d="m0 0h1600v1600h-1600v-1600z" fill="#FDFDFD"/>
<path transform="translate(926,482)" d="m0 0c2.64 2.3 5.23 4.64 7.81 7 0.618 0.564 1.24 1.13 1.87 1.71 1.48 1.39 2.9 2.83 4.32 4.29v2h2v2h2v2h2c22.8 22.7 37.6 56 45.8 86.6 0.294 1.1 0.589 2.2 0.892 3.33 3.7 14.5 4.69 28.4 4.62 43.3-0.0107 2.73-4.42e-5 5.47 0.0127 8.2 0.0225 26.2 0.0225 26.2-4.27 36.6-0.331 1.69-0.619 3.38-0.867 5.08-1.06 6.16-3.01 11.8-5.26 17.6-0.401 1.05-0.802 2.1-1.22 3.18-7.78 20-18.5 38.2-31.7 55.1-0.917 1.31-1.83 2.62-2.75 3.94-6.35 8.48-14.7 16-22.9 22.7-1.66 1.43-1.66 1.43-2.39 4.37 18.4 0.777 36.7 1.14 55.1 1.08 2.57-0.00357 5.14-0.00665 7.72-0.00929 5.47-0.00621 10.9-0.0159 16.4-0.0279 7.91-0.0172 15.8-0.0266 23.7-0.0339 12.8-0.0119 25.7-0.0268 38.5-0.0451 0.764-0.00109 1.53-0.00218 2.32-0.0033 8.56-0.0123 17.1-0.0259 25.7-0.0413 0.774-0.00139 1.55-0.00279 2.35-0.00423 1.56-0.00282 3.12-0.00564 4.69-0.00846 0.772-0.00139 1.54-0.00279 2.34-0.00422 0.771-0.00139 1.54-0.00279 2.34-0.00422 12.8-0.023 25.7-0.0383 38.5-0.0473 7.9-0.00585 15.8-0.0182 23.7-0.039 6.03-0.0153 12.1-0.0203 18.1-0.0214 2.48-0.00216 4.95-0.00778 7.43-0.017 3.37-0.0121 6.73-0.012 10.1-0.00883 0.991-0.00651 1.98-0.013 3-0.0197 1.34 0.00505 1.34 0.00505 2.71 0.0102 1.17-0.00195 1.17-0.00195 2.35-0.00394 1.89 0.247 1.89 0.247 3.89 2.25 1.48 7 1.07 14.4 0.879 21.5-0.0236 1.05-0.0472 2.1-0.0715 3.19-0.0759 3.32-0.16 6.64-0.245 9.96-0.0533 2.27-0.106 4.53-0.158 6.8-0.128 5.52-0.264 11-0.404 16.6-3.03 1.75-5.2 2.25-8.68 2.25-0.945 0.00475-1.89 0.0095-2.86 0.0144-1.04-0.00497-2.08-0.00994-3.14-0.0151-1.11 0.00261-2.22 0.00521-3.36 0.0079-3.75 0.00634-7.49-0.00169-11.2-0.00955-2.7 0.00159-5.4 0.00397-8.1 0.00732-5.89 0.0057-11.8 0.00392-17.7-0.00269-8.77-0.00981-17.5-0.00819-26.3-0.00425-14.8 0.00629-29.6 0.00308-44.4-0.00559-14.8-0.00864-29.5-0.0135-44.3-0.0133-0.921 7.65e-6 -1.84 1.53e-5 -2.79 2.32e-5 -3.74 4.09e-5 -7.48 1.07e-4 -11.2 2.06e-4 -35.2 9.08e-4 -70.4-0.00906-106-0.0244-30.9-0.0135-61.8-0.0199-92.8-0.0192-1.96 4.04e-5 -3.93 8.08e-5 -5.89 1.21e-4 -0.972 2.04e-5 -1.94 4.07e-5 -2.94 6.17e-5 -4.9 1.01e-4 -9.79 1.91e-4 -14.7 2.7e-4 -0.967 1.67e-5 -1.93 3.34e-5 -2.93 5.06e-5 -26.1 3.72e-4 -52.2-0.00424-78.3-0.0104-0.938-2.2e-4 -1.88-4.41e-4 -2.84-6.67e-4 -3.77-8.88e-4 -7.54-0.00178-11.3-0.00269-12.8-0.00309-25.6-0.00465-38.4-0.0051-73.9-0.00303-148-0.092-222-0.511-5.87-0.0329-11.7-0.061-17.6-0.0871-7.04-0.0315-14.1-0.0701-21.1-0.118-3.58-0.0244-7.16-0.0458-10.7-0.0588-3.87-0.0142-7.75-0.0439-11.6-0.0753-1.14-0.0019-2.28-0.00379-3.45-0.00575-1.03-0.0109-2.06-0.0218-3.12-0.0331-0.892-0.00531-1.78-0.0106-2.7-0.0161-2.13-0.261-2.13-0.261-4.13-2.26-0.254-2.14-0.254-2.14-0.259-4.81-0.0063-1-0.0126-2-0.0191-3.03 0.00405-1.09 0.0081-2.17 0.0123-3.29-0.00191-1.11-0.00383-2.23-0.0058-3.38-0.00136-2.36 0.00234-4.73 0.0107-7.09 0.0107-3.61 1.3e-4 -7.22-0.0127-10.8 0.00132-2.3 0.00389-4.59 0.00781-6.89-0.00405-1.08-0.0081-2.16-0.0123-3.27 0.0323-5.19 0.178-9.56 2.28-14.4 7.64-1.05 15.1-1.08 22.8-1 2.4 0.0255 4.8 0.0465 7.21 0.0625l3.19 0.0352c2.67 0.00868 2.67 0.00868 4.69-0.596 2.22-0.532 4.15-0.627 6.43-0.628 0.865-0.00261 1.73-0.00522 2.62-0.0079 1.42 0.00335 1.42 0.00335 2.86 0.00676 1.51-0.00234 1.51-0.00234 3.05-0.00473 3.39-4e-3 6.77-8.25e-4 10.2 0.00232 2.42-0.00135 4.85-0.00313 7.27-0.00531 5.91-0.00409 11.8-0.00348 17.7-5.87e-4 4.8 0.00226 9.6 0.00256 14.4 0.00148 1.02-2.3e-4 1.02-2.3e-4 2.07-4.64e-4 1.39-3.2e-4 2.78-6.44e-4 4.16-9.73e-4 13-0.00285 26 4.28e-4 39.1 0.0058 11.2 0.00447 22.3 0.00369 33.5-9.19e-4 13-0.00535 25.9-0.00746 38.9-0.00439 1.38 3.19e-4 2.77 6.33e-4 4.15 9.43e-4 1.02 2.31e-4 1.02 2.31e-4 2.06 4.68e-4 4.79 8.63e-4 9.59-5.93e-4 14.4-0.00295 6.46-0.0031 12.9-8.88e-4 19.4 0.00489 2.37 0.00132 4.74 9.41e-4 7.11-0.00126 3.23-0.00273 6.47 6.9e-4 9.7 0.00568 1.41-0.00335 1.41-0.00335 2.85-0.00676 4.52 0.0136 8.77 0.21 13.2 1.13-3.56-6.11-8.51-10.6-13.6-15.5-7.87-7.74-15-15.6-21.4-24.5-0.625-0.842-1.25-1.68-1.89-2.55-19.1-26.4-31-57.4-36.1-89.4-0.191-1.18-0.382-2.37-0.578-3.59-2.34-20-0.932-40.9 3.58-60.4 0.273-1.26 0.273-1.26 0.551-2.55 8.22-38 26.4-70.8 53-98.9 0.937-0.995 1.87-1.99 2.79-3 65.2-70.7 179-71.9 264-10.5z" fill="#F85D0E"/>
<path transform="translate(800 496)" d="m0 0c0.759-0.00387 1.52-0.00773 2.3-0.0117 3.26 0.00576 5.9 0.0984 9.01 1.14 2.21 0.179 4.42 0.32 6.62 0.438 5.69 0.389 10.9 1.05 16.4 2.56 1.81 0.458 1.81 0.458 3.66 0.926 15.2 4.01 29.9 10.3 42.3 20.1 1.14 0.867 2.28 1.73 3.43 2.6 27.5 21 48.1 53.9 53.6 88.4 0.398 3.92 0.615 7.85 0.789 11.8 0.0838 3.02 0.0838 3.02 0.739 5.06 0.6 2.74 0.431 5.13 0.238 7.93-0.0777 1.13-0.155 2.26-0.235 3.42-3 38.8-16.7 73.5-46.5 99.8-6.98 5.65-14.2 10.5-22 15-0.935 0.576-1.87 1.15-2.83 1.75-7.14 4.35-14.3 7.51-22.2 10.3-1.27 0.461-2.54 0.922-3.8 1.38-7.06 2.52-13.7 4.27-21.2 4.62-1.75 0.157-3.5 0.323-5.25 0.5-0.768 0.0722-1.54 0.144-2.33 0.219-2.49 0.258-2.49 0.258-5.19 0.821-31.5 4.5-67.2-10.6-92.2-28.7-2.4-1.88-4.7-3.82-6.99-5.83-1.27-1.09-1.27-1.09-2.57-2.21-21.7-19-37.1-46.4-42.4-74.8-0.204-1.04-0.407-2.08-0.617-3.15-2.68-16.3-3.18-34.7 0.617-50.8 0.257-1.16 0.513-2.31 0.777-3.5 5.45-22.5 16.2-43 31.2-60.5 0.773-0.914 1.55-1.83 2.34-2.77 20.7-23.7 51.7-41.9 83.5-45 0.687-0.0361 1.37-0.0722 2.08-0.109 2.22-0.107 2.22-0.107 4.82-0.648 4.02-0.603 7.91-0.638 12-0.617z" fill="#FDFDFD"/>
<path transform="translate(542 901)" d="m0 0c0.746-4.99e-4 1.49-9.97e-4 2.26-0.00151 1.57 0.00234 3.15 0.0121 4.72 0.0286 2.41 0.0236 4.83 0.0206 7.24 0.0139 1.53 0.00558 3.06 0.0127 4.59 0.0215 1.09-0.00137 1.09-0.00137 2.19-0.00276 5.1 0.0725 5.1 0.0725 7.33 2.3 0.319 2.63 0.319 2.63 0.414 6.07 0.029 0.962 0.029 0.962 0.0587 1.94 0.0616 2.18 0.107 4.37 0.152 6.55 0.039 1.56 0.0781 3.12 0.117 4.68 0.409 18 0.313 36 0.221 54-0.00645 1.79-0.00645 1.79-0.013 3.62-0.00822 2.23-0.0205 4.45-0.0381 6.68-0.0173 5.46 0.161 10.8 0.583 16.3 0.757 10.5 0.649 21.1 0.637 31.7 6.75e-4 2.24 0.00165 4.48 0.0029 6.71 0.00146 4.66-6.4e-4 9.31-0.00534 14-0.00574 5.98-0.00238 12 0.00357 17.9 0.0036 4.61 0.00247 9.21-1.28e-4 13.8-6.68e-4 2.21 1.54e-4 4.41 0.00248 6.62 0.00253 3.07-0.00131 6.13-0.0069 9.2 0.00202 0.914 0.00405 1.83 0.00613 2.77-0.0213 6.26-0.0213 6.26-1.14 8.49-0.087 2.92-0.116 5.81-0.0977 8.73 0.00141 0.863 0.00283 1.73 0.00429 2.61 0.00561 2.76 0.0182 5.52 0.0309 8.28 0.00501 1.87 0.00958 3.74 0.0137 5.61 0.011 4.59 0.0283 9.18 0.0488 13.8-5.42 1.22-10.7 1.18-16.2 1.19-1.49 0.0184-1.49 0.0184-3 0.0371-6.55 0.0129-12.4-0.745-18.8-2.22-0.99-2.97-1.98-5.94-3-9-0.969 0.519-1.94 1.04-2.94 1.57-25.2 13.2-51.7 17.5-79.3 9.17-17.9-5.72-33.3-16.6-45.7-30.7v-2h-2c-0.103-0.639-0.206-1.28-0.312-1.94-0.227-0.681-0.454-1.36-0.688-2.06-0.99-0.33-1.98-0.66-3-1-1.43-2.4-2.67-4.74-3.88-7.25-0.351-0.721-0.702-1.44-1.06-2.18-6.34-13.2-10.5-25.4-10.4-40.2 0.00491-0.957 0.00983-1.91 0.0149-2.9 0.359-22 7.9-44.5 22.3-61.5 0.62-0.775 1.24-1.55 1.88-2.35 13.4-16 36.1-28.8 57.1-30.7 4.69-0.184 9.37-0.231 14.1-0.25 1.23-0.0206 2.47-0.0412 3.74-0.0625 16.3-0.0684 30.8 4.18 45.1 12 1.15 0.625 2.3 1.25 3.48 1.89 0.864 0.473 1.73 0.947 2.62 1.43-0.00999-1.49-0.00999-1.49-0.0202-3.02-0.0608-9.37-0.106-18.7-0.135-28.1-0.0157-4.82-0.0369-9.64-0.0709-14.5-0.0325-4.65-0.0505-9.3-0.0583-13.9-0.00555-1.78-0.0164-3.55-0.0326-5.33-0.0217-2.48-0.0248-4.97-0.0234-7.45-0.0108-0.737-0.0216-1.47-0.0327-2.23 0.0177-2.91 0.0392-4.95 1.68-7.41 2.89-1.78 6.07-1.45 9.35-1.41z" fill="#2B203A"/>
<path transform="translate(700 970)" d="m0 0c1.03-0.00701 1.03-0.00701 2.07-0.0142 9.73 0.03 18.1 1.32 27.2 4.76 0.957 0.353 1.91 0.706 2.9 1.07 7.23 2.75 13.8 5.97 20.2 10.3 0.218-1.41 0.218-1.41 0.441-2.86 0.504-2.84 1.04-4.73 2.56-7.14 3.17-1.59 6.63-1.39 10.1-1.56 1.19-0.0637 1.19-0.0637 2.41-0.129 7.82-0.385 15.6-0.405 23.5-0.309 1.46 2.93 1.13 5.5 1.13 8.77 0.00156 0.704 0.00312 1.41 0.00473 2.13 4e-3 2.37 8.22e-4 4.74-0.00232 7.11 0.00135 1.69 0.00313 3.39 0.00531 5.08 0.00457 4.61 0.00279 9.23-3.79e-4 13.8-0.00253 4.82-1.85e-4 9.65 0.00139 14.5 0.00182 8.11-5.83e-4 16.2-0.00534 24.3-0.00544 9.37-0.00369 18.7 0.00183 28.1 0.00454 8.04 0.00518 16.1 0.00256 24.1-0.00156 4.8-0.00177 9.61 0.00154 14.4 0.00289 4.52 8.79e-4 9.04-0.00489 13.6-0.00132 1.66-9.45e-4 3.32 0.00126 4.98 0.00274 2.27-7.02e-4 4.53-0.00568 6.8-5.66e-4 1.9-5.66e-4 1.9-0.00114 3.84-0.119 3.24-0.512 6.26-1.13 9.43-4.93 0.0741-9.86 0.129-14.8 0.165-1.68 0.0151-3.35 0.0356-5.03 0.0615-2.41 0.0364-4.82 0.0534-7.23 0.0667-0.75 0.0155-1.5 0.031-2.27 0.0469-5.17 0.00167-5.17 0.00167-7.57-1.63-1.8-2.78-2.89-5.63-4.11-8.71-0.897 0.519-1.79 1.04-2.72 1.57-15.3 8.66-29.8 12.6-47.5 12.6-2.09 0.00218-4.19 0.0204-6.28 0.0393-7.08 0.0302-13.7-0.191-20.5-2.22-0.982-0.26-1.96-0.521-2.98-0.789-13.5-4.27-25-11.3-36-20.2-0.642-0.477-1.28-0.954-1.95-1.45-15.4-12-23.5-31.2-28.1-49.6-0.246-0.902-0.492-1.8-0.746-2.73-5.51-22.7 2.3-48.8 13.7-68.3 13.6-20.6 32.7-33.5 56-41 1.15-0.392 2.31-0.784 3.5-1.19 7.61-1.77 15.3-1.9 23.1-1.94z" fill="#2B203A"/>
<path transform="translate(1178 988)" d="m0 0c19.5 14.5 33.6 37.9 37.9 61.8 3.56 26.6-2 52.8-18.3 74.3-0.639 0.813-1.28 1.63-1.94 2.46-0.516 0.659-1.03 1.32-1.56 2-7.09 8.65-15.8 14.5-25.4 20-0.576 0.326-1.15 0.651-1.75 0.987-8.19 4.55-16 7.47-25.3 9.01-1.06 0.183-2.11 0.366-3.2 0.555-27.7 3.24-53.9-2.24-76-19.6-20.2-16.2-32.8-38.2-35.8-63.9-1.29-19.7 2.34-36.4 11-54 0.4-0.838 0.799-1.68 1.21-2.54 11.2-21.8 31.7-37.1 54.6-44.8 29.7-8.91 59-3.12 84.5 13.7z" fill="#2A1E39"/>
<path transform="translate(509 1017)" d="m0 0c12.9 11 20 23.3 21.5 40.1 1.04 17.9-1.85 31.7-13.6 45.5-9.94 10.6-22.9 16.2-37.4 17.5-0.744 0.0709-1.49 0.142-2.25 0.215-15.5 0.715-29.7-5.85-41.3-15.8-7.48-7.28-11.2-15.6-14.5-25.4-0.248-0.674-0.495-1.35-0.75-2.04-4.43-13.9-0.658-29.2 5.72-41.8 7.84-14.4 20.4-22.5 35.7-27.5 16-4.67 33.8-0.886 46.8 9.26z" fill="#FDFDFD"/>
<path transform="translate(1155 1019)" d="m0 0c10.7 8.52 19.7 21.3 21.6 35 1.37 19 0.269 35.6-12.3 50.8-5.56 5.9-11.4 9.78-18.7 13.2-0.69 0.358-1.38 0.717-2.09 1.09-12.2 5.85-30.5 3.89-42.9-0.0859-15.2-6.28-24.8-17-31-32-5.78-14.3-5.02-30 0.625-44.2 2.95-6.44 6.53-11.7 11.4-16.8 0.593-0.634 1.19-1.27 1.8-1.92 18.7-18.1 50.6-19.6 71.6-5.11z" fill="#FDFDFD"/>
<path transform="translate(701,1009)" d="m0 0c1.12 0.0683 2.25 0.137 3.4 0.207 12.8 1.2 24.9 5.87 33.6 15.8 8.22 10.3 13.6 20.6 14 34 0.0599 1.61 0.0599 1.61 0.121 3.25 0.328 17.3-2.33 29.9-13.7 43.2-10.9 11.3-24.1 15.4-39.4 15.8-16.8 0.124-28.5-3.98-41-15.2-0.628-0.559-1.26-1.12-1.9-1.7-4.26-4.31-6.85-9.34-9.47-14.7-0.346-0.704-0.693-1.41-1.05-2.13-2.09-4.54-3.06-8.57-3.39-13.6-0.087-1.95-0.087-1.95-1.19-3.86-1.23-14.9 3.72-29.8 13.4-41.2 12.3-13.6 28-21.1 46.6-19.8z" fill="#FDFDFD"/>
<path transform="translate(922,971)" d="m0 0c2.44 3.66 2.29 6.42 2.27 10.7 0.00191 0.746 0.00383 1.49 0.0058 2.26 0.00136 1.57-0.00232 3.15-0.0107 4.72-0.0107 2.41-9e-5 4.83 0.0127 7.24-0.00132 1.53-0.00388 3.06-0.00781 4.59 0.00405 0.724 0.0081 1.45 0.0123 2.19-0.048 5.1-0.048 5.1-2.28 7.33-2.5 0.669-4.98 1.26-7.5 1.81-15.2 3.58-26.7 11.2-35.5 24.2-7.03 12.2-9.11 23.4-9.21 37.3-0.0099 0.879-0.0198 1.76-0.03 2.66-0.0313 2.87-0.0562 5.75-0.0811 8.62-0.0206 2-0.0416 4.01-0.063 6.01-0.0549 5.25-0.104 10.5-0.153 15.8-0.0504 5.37-0.106 10.7-0.161 16.1-0.107 10.5-0.209 21-0.307 31.6-5.39 0.0246-10.8 0.0428-16.2 0.0549-1.84 0.00504-3.67 0.0119-5.51 0.0205-2.63 0.0121-5.27 0.0178-7.9 0.0222-1.24 0.00774-1.24 0.00774-2.5 0.0156-1.97 1.96e-4 -3.94-0.0513-5.91-0.113-1.9-1.9-1.13-5.27-1.13-7.79-0.00156-0.718-0.00312-1.44-0.00473-2.18-0.00401-2.42-8.19e-4 -4.85 0.00232-7.27-0.00135-1.73-0.00313-3.46-0.00531-5.19-0.00458-4.71-0.00278-9.43 3.79e-4 -14.1 0.00252-4.92 1.86e-4 -9.85-0.00139-14.8-0.00182-8.27 5.85e-4 -16.5 0.00534-24.8 0.00544-9.57 0.00368-19.1-0.00183-28.7-0.00453-8.21-0.00518-16.4-0.00256-24.6 0.00156-4.91 0.00176-9.81-0.00154-14.7-0.00288-4.61-8.99e-4 -9.23 0.00489-13.8 0.00133-1.7 9.35e-4 -3.39-0.00126-5.09-0.00272-2.31 6.75e-4 -4.62 0.00568-6.93 3.77e-4 -1.29 7.54e-4 -2.59 0.00114-3.92 0.126-2.99 0.126-2.99 1.13-4.99 4.11-1.21 8.19-1.13 12.5-1.13 0.701-9.57e-4 1.4-0.00191 2.12-0.0029 1.47-6.77e-4 2.94 0.00115 4.42 0.00534 2.26 0.00539 4.52 2.4e-5 6.79-0.00635 1.43 6.6e-4 2.86 0.00194 4.3 0.00391 1.3 0.00113 2.61 0.00226 3.95 0.00342 2.97 0.129 2.97 0.129 3.97 1.13 0.237 2.69 0.422 5.36 0.562 8.06 0.0432 0.759 0.0864 1.52 0.131 2.3 0.106 1.88 0.207 3.76 0.307 5.64 4.63-2.18 8.87-4.53 13.1-7.38 11-7.08 25.5-14.1 38.9-12.6z" fill="#2A1E39"/>
<path transform="translate(962 974)" d="m0 0c1.48 1.59e-4 2.95 0.00585 4.43 0.0159 0.775 0.00141 1.55 0.00283 2.35 0.00429 2.49 0.00562 4.97 0.0182 7.46 0.0309 1.68 0.00501 3.36 0.00958 5.04 0.0137 4.13 0.011 8.26 0.0283 12.4 0.0488 6.38 12.8 2.15 35.6 2.13 49.9-0.00256 4.03-1.75e-4 8.06 0.00139 12.1 0.00181 6.76-5.52e-4 13.5-0.00534 20.3-0.00545 7.78-0.00367 15.6 0.00183 23.3 0.00456 6.72 0.00517 13.4 0.00256 20.2-0.00155 4-0.0018 7.99 0.00154 12 0.00292 3.76 8.29e-4 7.51-0.00489 11.3-0.00192 2.01 9.91e-4 4.02 0.00413 6.03-0.0191 8.34-0.435 16.6-1.14 24.9-5.25 0.0246-10.5 0.0428-15.8 0.0549-1.79 0.00504-3.58 0.0119-5.36 0.0205-2.56 0.0121-5.13 0.0178-7.69 0.0222-1.21 0.00774-1.21 0.00774-2.44 0.0156-1.92 1.96e-4 -3.84-0.0513-5.75-0.113-1.7-1.7-1.23-3.92-1.31-6.26-0.0617-1.7-0.0617-1.7-0.125-3.43-0.0386-1.25-0.0772-2.49-0.117-3.77-0.042-1.3-0.0841-2.6-0.127-3.94-0.449-14.7-0.485-29.3-0.488-44-7.23e-4 -2.3-0.00288-4.6-0.0055-6.9-0.00915-8.06-0.0133-16.1-0.0125-24.2 6.06e-4 -7.47-0.0101-14.9-0.0257-22.4-0.0131-6.47-0.0184-12.9-0.0178-19.4 2.54e-4 -3.84-0.00253-7.69-0.0132-11.5-0.00969-3.59-0.00975-7.19-0.00248-10.8 0.00154-1.94-0.00678-3.87-0.0154-5.81 0.063-17.5 0.063-17.5 6.59-17.7z" fill="#2A1E39"/>
<path transform="translate(700 970)" d="m0 0c1.03-0.00701 1.03-0.00701 2.07-0.0142 9.39 0.029 17.6 1.14 26.4 4.51 0.844 0.304 1.69 0.608 2.56 0.922 6.18 2.31 6.18 2.31 8.44 5.7-1.11-0.371-1.11-0.371-2.25-0.75-0.908-0.0825-1.82-0.165-2.75-0.25-0.557 0.557-1.11 1.11-1.69 1.69-2.48 2.48-3.94 3.01-7.19 4.12-5.02 1.9-8.72 4.24-11.1 9.19 0.0573 3.74 0.0573 3.74 1 7l-1 2h-3v2c-3.09 2.06-4.32 2.34-7.9 2.71-1.45 0.162-1.45 0.162-2.93 0.327-1.02 0.111-2.05 0.222-3.1 0.337-12.6 1.53-26.3 3.76-35.7 13.3-1.35 1.32-1.35 1.32-3.35 1.32-0.259 0.561-0.518 1.12-0.785 1.7-1.35 2.56-2.94 4.78-4.65 7.11-2.82 3.96-4.88 7.64-6.56 12.2-0.33-1.32-0.66-2.64-1-4h-3v2h-2v2h-2v-5c-11.6 0.35-11.6 0.35-22 5-1.94 2.58-1.94 2.58-3 5h-2l-1-2c-0.33 1.32-0.66 2.64-1 4h-2v9h2c-0.33-2.64-0.66-5.28-1-8h3c0.495-0.99 0.495-0.99 1-2 0.718 6.77 1.24 13.5 1.62 20.3 0.125 2.83 0.125 2.83 2.38 4.69 0.344 2.02 0.344 2.02 0.5 4.38 0.229 3.42 0.945 5.6 2.5 8.62 0.124 1.64 0.124 1.64 0.25 3.31 0.785 3.86 1.11 4.28 3.75 6.81 4.01 4.16 3.72 8.63 3.8 14.2 0.067 0.889 0.134 1.78 0.203 2.7 0.66 0.33 1.32 0.66 2 1 0.625 3.06 0.625 3.06 1 6-0.66 0.33-1.32 0.66-2 1-0.66-1.32-1.32-2.64-2-4 0.33 2.64 0.66 5.28 1 8-15-10.1-20.1-31.4-24-48-0.309-1.29-0.309-1.29-0.625-2.61-3.52-22.4 4.2-48.7 17-66.8 13.8-18.8 31.6-30.5 53.6-37.6 1.15-0.392 2.31-0.784 3.5-1.19 7.61-1.77 15.3-1.9 23.1-1.94z" fill="#2A1E39"/>
<path transform="translate(922,971)" d="m0 0c2.44 3.66 2.29 6.42 2.27 10.7 0.00191 0.746 0.00383 1.49 0.0058 2.26 0.00136 1.57-0.00232 3.15-0.0107 4.72-0.0107 2.41-9e-5 4.83 0.0127 7.24-0.00132 1.53-0.00388 3.06-0.00781 4.59 0.00405 0.724 0.0081 1.45 0.0123 2.19-0.048 5.1-0.048 5.1-2.28 7.33-2.5 0.669-4.98 1.26-7.5 1.81-15.1 3.58-26.7 11.2-35.5 24.2-4.35 7.66-4.35 7.66-7 16h-2v2c-1.49-0.495-1.49-0.495-3-1l-1-2c-2.13-0.467-2.13-0.467-4.56-0.625-0.826-0.0748-1.65-0.15-2.5-0.227-0.957-0.0735-0.957-0.0735-1.93-0.148v-6c-0.949 0.0206-1.9 0.0412-2.88 0.0625-3.12-0.0625-3.12-0.0625-5.12-1.06v-2h-2c-6.9-15-1.92-35.2 0-51-2.47 7.06-3.54 13.5-3.75 21-0.036 0.992-0.072 1.98-0.109 3.01-0.232 7.86 0.0232 15.6 0.605 23.5 0.254 3.52 0.254 3.52 0.254 7.52-0.99 0.495-0.99 0.495-2 1-2.26-4.49-2.28-8.74-2.23-13.7 4.58e-4 -0.827 9.16e-4 -1.65 0.00139-2.51 0.00301-1.74 0.0109-3.48 0.0233-5.23 0.0183-2.66 0.0205-5.33 0.0203-7.99 0.00492-1.7 0.0107-3.39 0.0176-5.09 0.00111-0.795 0.00223-1.59 0.00337-2.41 0.0305-3.55 0.286-6.69 1.16-10.1 0.187-3.37 0.316-6.73 0.426-10.1 0.574-2.9 0.574-2.9 2.62-4.3 0.646-0.199 1.29-0.397 1.96-0.602v-2c5.94-3.3 11.3-4.96 18-6-0.66-0.66-1.32-1.32-2-2 2-0.0425 4-0.0408 6 0 2.06 2.06 1.41 6.22 1.56 9.06 0.0432 0.759 0.0864 1.52 0.131 2.3 0.106 1.88 0.207 3.76 0.307 5.64 4.63-2.18 8.87-4.53 13.1-7.38 11-7.08 25.5-14.1 38.9-12.6z" fill="#2B203A"/>
<path transform="translate(1055,1098)" d="m0 0h7c-0.712 0.65-0.712 0.65-1.44 1.31-1.8 1.71-1.8 1.71-2.56 4.69h3c0.33-0.99 0.66-1.98 1-3v3c1.32 0.33 2.64 0.66 4 1-0.639 0.124-1.28 0.247-1.94 0.375-0.681 0.206-1.36 0.412-2.06 0.625-0.33 0.66-0.66 1.32-1 2v-3c-0.99 0.495-0.99 0.495-2 1-0.33 0.99-0.66 1.98-1 3h10c0.33-1.32 0.66-2.64 1-4 2.44-1.25 4.25-2 7-2-2.31-0.66-4.62-1.32-7-2 1.75-1.56 1.75-1.56 4-3 2.67 0.243 3.78 0.786 5.71 2.67 0.549 0.686 1.1 1.37 1.66 2.08 7.94 9.86 19.8 16.5 32.4 18 15.8 1.02 31.3 0.661 44-10.1 1.73-1.6 3.45-3.23 5.13-4.88 2.13-1.79 2.13-1.79 5.13-1.79 0.99 0.495 0.99 0.495 2 1-0.33 0.66-0.66 1.32-1 2 0.99-0.99 1.98-1.98 3-3 0.99 0.33 1.98 0.66 3 1 0.33-0.516 0.66-1.03 1-1.56 2.82-2.03 4.74-1.39 8.06-0.859 1.94 0.422 1.94 0.422 4.94 1.42v3c0.99 0.33 1.98 0.66 3 1-0.228 2.23-0.47 4.46-0.734 6.68-0.193 1.68-0.338 3.37-0.453 5.07-1.04 2.89-2.86 4.16-5.25 6-2.87 2.31-5.01 5.02-6.5 8.38-1.61 2.85-3.03 3.61-6.06 4.88-2.56 0.12-5.04 0.0637-7.6-0.0898-2.65 0.099-4.15 0.751-6.4 2.09v2h-2v-2c-1.9-0.0272-3.79-0.0465-5.69-0.0625-1.06-0.0116-2.11-0.0232-3.2-0.0352-5.63 0.104-5.63 0.104-10.1 3.1-2.3 0.378-4.58 0.505-6.91 0.656-2.31 0.17-2.31 0.17-4.09 2.34h13c-2.4 2.4-3.27 2.31-6.56 2.56-3.02 0.022-3.02 0.022-5.44 1.44 1.48 0.99 1.48 0.99 3 2-5.71 0.993-11.2 1.1-17 1 2.31 0.33 4.62 0.66 7 1-2.55 2.55-3.49 2.26-7.02 2.27-1 0.00258-2.01 0.00516-3.04 0.00781-1.05-0.00773-2.11-0.0155-3.19-0.0234-1.56 0.0116-1.56 0.0116-3.14 0.0234-9.94-0.0254-9.94-0.0254-14.6-2.27-0.875-2.12-0.875-2.12-1-4-1.11-0.206-2.23-0.412-3.38-0.625-1.2-0.454-2.39-0.908-3.62-1.38-1.25-2.94-1.25-2.94-2-6-1.54-1.71-1.54-1.71-3-3v-2h-2v-4c-2.46-1.64-2.46-1.64-5-3v-2c-0.66-0.33-1.32-0.66-2-1-2.1-3.41-2.94-7.17-4-11-0.33-0.66-0.66-1.32-1-2-0.33 0.99-0.66 1.98-1 3-0.454-0.784-0.908-1.57-1.38-2.38-1.51-2.66-1.51-2.66-3.62-4.62-0.414-3.04-0.414-3.04-0.625-6.62-0.0748-1.19-0.15-2.38-0.227-3.6-0.049-0.915-0.098-1.83-0.148-2.77z" fill="#2B203A"/>
<path transform="translate(476 969)" d="m0 0c1.26-0.0122 2.52-0.0245 3.82-0.0371 7.54-0.0117 14.6 0.546 21.9 2.22v2c-1.36 0.0561-1.36 0.0561-2.74 0.113-1.18 0.0657-2.36 0.131-3.57 0.199-1.17 0.058-2.34 0.116-3.55 0.176-3.47 0.565-3.92 1.01-6.14 3.51-4.88 2.95-9.46 3.8-15 4.56-0.832 0.124-1.66 0.249-2.52 0.377-3.89 0.577-7.79 1.11-11.7 1.59-1.23 0.156-2.46 0.312-3.72 0.473-1.62 0.186-1.62 0.186-3.28 0.375-3 0.674-4.46 1.66-6.79 3.62-1.21 0.464-1.21 0.464-2.44 0.938-3 1.24-5.09 2.99-7.56 5.06l-2 1c-0.685 2.33-1.35 4.66-2 7-0.956 2.02-1.94 4.03-3 6 1.98-0.66 3.96-1.32 6-2v2c2.97-0.99 5.94-1.98 9-3 0.0809 1.62 0.139 3.25 0.188 4.88 0.0522 1.36 0.0522 1.36 0.105 2.74-0.0967 0.786-0.193 1.57-0.293 2.38-3 2-3 2-5.62 2.5-1.18 0.247-1.18 0.247-2.38 0.5l-1 2h-2v2h-2v2c-3.82 1.42-6.91 2.24-11 2-0.0928 1.11-0.0928 1.11-0.188 2.25-1.05 3.57-2.81 4.67-5.81 6.75-0.66-0.66-1.32-1.32-2-2-0.99 0.495-0.99 0.495-2 1v-3c1.65-1.35 3.32-2.68 5-4 1.18-2.1 1.18-2.1 2-4 0.66-0.33 1.32-0.66 2-1-0.99-0.33-1.98-0.66-3-1-0.254 0.728-0.508 1.46-0.77 2.21-2.19 4.96-6.16 10.4-11.2 12.7-1.66 0.383-3.32 0.751-4.99 1.12-2.64 3.12-2.9 7.99-3 12 0.161 0.61 0.322 1.22 0.489 1.85 0.54 2.27 0.641 4.26 0.644 6.59 0.00193 1.25 0.00193 1.25 0.00391 2.52-0.00387 0.859-0.00773 1.72-0.0117 2.6 0.00387 0.863 0.00773 1.73 0.0117 2.62-0.00129 0.83-0.00258 1.66-0.00391 2.51-0.00113 0.755-0.00226 1.51-0.00342 2.29-0.129 2.02-0.129 2.02-1.13 5.02-0.0705 2.74-0.0936 5.45-0.0625 8.19 0.00451 0.75 0.00902 1.5 0.0137 2.27 0.0118 1.85 0.0297 3.69 0.0488 5.54h-2c-0.66-2.64-1.32-5.28-2-8-0.334 6.26-0.183 10.4 3 16v4c0.99 0.33 1.98 0.66 3 1 0.33 2.31 0.66 4.62 1 7h2c2.88 6.62 2.88 6.62 4 10h-2c-0.103-0.639-0.206-1.28-0.312-1.94-0.227-0.681-0.454-1.36-0.688-2.06-0.99-0.33-1.98-0.66-3-1-1.43-2.4-2.67-4.74-3.88-7.25-0.351-0.721-0.702-1.44-1.06-2.18-6.34-13.2-10.5-25.4-10.4-40.2 0.00491-0.957 0.00983-1.91 0.0149-2.9 0.359-22 7.9-44.5 22.3-61.5 0.62-0.775 1.24-1.55 1.88-2.35 17.8-21.2 44.4-30.8 71.4-30.8z" fill="#2A1E39"/>
<path transform="translate(978 898)" d="m0 0c6.53 0.628 11.6 3.2 16.1 8 5.51 6.96 8.02 13.4 7.71 22.4-1.08 6.08-4.65 10.2-9.02 14.3-6.62 4.3-12.5 6.61-20.5 5.62-7.47-2.16-14.5-6.58-18.4-13.4-2.57-5.93-3.91-11-1.66-17.2 3.14-7.37 6.05-13.1 13.5-16.6 4.11-1.64 7.86-2.5 12.2-3z" fill="#2A1E39"/>
<path transform="translate(542 901)" d="m0 0c0.746-4.99e-4 1.49-9.97e-4 2.26-0.00151 1.57 0.00234 3.15 0.0121 4.72 0.0286 2.41 0.0236 4.83 0.0206 7.24 0.0139 1.53 0.00558 3.06 0.0127 4.59 0.0215 1.09-0.00137 1.09-0.00137 2.19-0.00276 5.1 0.0725 5.1 0.0725 7.33 2.3 0.227 2.98 0.227 2.98 0.195 6.76-0.00283 0.663-0.00566 1.33-0.00858 2.01-0.0112 2.12-0.0363 4.24-0.0617 6.36-0.01 1.44-0.0192 2.87-0.0273 4.31-0.0221 3.52-0.0566 7.04-0.0977 10.6-0.495-1.98-0.495-1.98-1-4h-2c-0.495 2.48-0.495 2.48-1 5-0.33-0.99-0.66-1.98-1-3-3.07 0.776-3.07 0.776-5 3v-3h-3c0.33 1.65 0.66 3.3 1 5h-2c-0.33 0.99-0.66 1.98-1 3h-2v3h-2c-0.33-0.99-0.66-1.98-1-3h-2v3h-2c-0.33 1.32-0.66 2.64-1 4h-2c-0.124 0.887-0.247 1.77-0.375 2.69-0.625 3.31-0.625 3.31-1.75 6.06-0.433 1.11-0.433 1.11-0.875 2.25 0.33 0.66 0.66 1.32 1 2-1.49 0.495-1.49 0.495-3 1-0.733 2.02-0.733 2.02-1 4-0.99-0.33-1.98-0.66-3-1-0.33 2.31-0.66 4.62-1 7-2.08-3.43-2.26-6.12-2.27-10.1-0.00953-1.23-0.0191-2.46-0.0289-3.73 2.61e-4 -1.34 0.0012-2.68 0.00276-4.02-0.00389-1.38-0.00822-2.75-0.013-4.13-0.00745-2.88-0.00718-5.76-0.00191-8.65 0.0058-3.69-0.0112-7.39-0.0343-11.1-0.0147-2.84-0.0156-5.68-0.0125-8.53-5.14e-4 -1.36-0.00576-2.72-0.0158-4.09-0.0123-1.9-0.00364-3.81 0.00601-5.71-6.29e-4 -1.08-0.00126-2.17-0.00191-3.28 0.374-2.69 0.374-2.69 1.68-4.54 2.84-1.93 6.04-1.56 9.35-1.51z" fill="#2A1E39"/>
<path transform="translate(922,971)" d="m0 0c2.44 3.66 2.29 6.42 2.27 10.7 0.00287 1.12 0.00287 1.12 0.0058 2.26 0.00136 1.57-0.00232 3.15-0.0107 4.72-0.0107 2.41-9e-5 4.83 0.0127 7.24-0.00132 1.53-0.00388 3.06-0.00781 4.59 0.00405 0.724 0.0081 1.45 0.0123 2.19-0.048 5.1-0.048 5.1-2.28 7.33-2.5 0.669-4.98 1.26-7.5 1.81-6.72 1.57-12.5 3.7-18.5 7.19-0.713 0.398-1.43 0.797-2.16 1.21-1.62 0.913-3.23 1.85-4.84 2.79 0.526-1.36 0.526-1.36 1.06-2.75 0.968-3.36 0.828-4.08-0.0625-7.25 0.271-2.01 0.594-4.01 1-6 2.64-0.33 5.28-0.66 8-1-0.33-0.66-0.66-1.32-1-2-1.98 0.495-1.98 0.495-4 1-1.74-5.08-0.00232-8.27 2-13-3.3-0.33-6.6-0.66-10-1v-1h9c0.33-0.99 0.66-1.98 1-3-2.97 0.66-5.94 1.32-9 2-1.56-1.81-1.56-1.81-3-4 1-3 1-3 3.89-4.68 1.26-0.599 2.53-1.18 3.8-1.75 0.67-0.305 1.34-0.61 2.03-0.924 8.76-3.87 18.6-7.94 28.3-6.64z" fill="#2A1E39"/>
<path transform="translate(976 997)" d="m0 0c0.557 0.392 1.11 0.784 1.69 1.19v2c1.65 0.33 3.3 0.66 5 1 1.92 5.77 1.18 11.4-0.0625 17.2-2.03 11.1-1.09 23.8 1.06 34.8h-2v4h-2v16h-2c0.0232 0.724 0.0464 1.45 0.0703 2.2 0.192 10.3 0.192 10.3-2.07 14.8-1.49 0.495-1.49 0.495-3 1-2.4-4.72-2.33-9.14-2.38-14.3-0.017-0.893-0.034-1.79-0.0515-2.71-0.053-2.85-0.0934-5.69-0.132-8.54-0.044-2.85-0.0908-5.7-0.143-8.55-0.0318-1.77-0.0587-3.54-0.0802-5.31-0.0135-0.804-0.027-1.61-0.0409-2.44-0.00951-0.704-0.019-1.41-0.0288-2.13-0.0847-2.03-0.0847-2.03-0.691-4.07-0.723-3.08 0.252-5.7 0.983-8.75 2.94-13.2 2.94-13.2 0.0703-25.9-0.498-0.758-0.995-1.52-1.51-2.3-0.5-3.62-0.5-3.62 0-7 2.64-2.42 3.83-3.41 7.31-2.19z" fill="#2C213B"/>
<path transform="translate(560,1046)" d="m0 0c0.577 0.165 1.15 0.33 1.75 0.5 2.52 0.645 2.52 0.645 6.25 0.5 0.66 2.31 1.32 4.62 2 7h1v26h-2v2h-4c-0.66 0.99-1.32 1.98-2 3v-2h-2c-0.33 0.99-0.66 1.98-1 3-0.722-0.763-1.44-1.53-2.19-2.31-2.64-2.74-2.64-2.74-5.62-4.31-0.722-0.454-1.44-0.908-2.19-1.38v-3h-3v-10c0.66-0.33 1.32-0.66 2-1 1.12-1.88 1.12-1.88 2.12-4.06 0.53-1.1 0.53-1.1 1.07-2.22 0.266-0.566 0.531-1.13 0.805-1.71h2l5-10z" fill="#2A1E39"/>
<path transform="translate(1176 1e3)" d="m0 0c2.88 1 2.88 1 5 2v4h2c2.65 2.12 3.4 3.71 4 7 0.0918 2.06 0.13 4.12 0.125 6.19 0.00387 1.6 0.00387 1.6 0.00781 3.23-0.133 2.58-0.133 2.58-1.13 3.58-2.33 0.0409-4.67 0.0424-7 0v-2h-2c0.0825-0.743 0.165-1.48 0.25-2.25-0.323-3.56-1.63-4.45-4.25-6.75-0.33-0.66-0.66-1.32-1-2-1.32-0.33-2.64-0.66-4-1v-11c2.79-1.39 4.9-1.18 8-1z" fill="#2B203A"/>
<path transform="translate(1059,1053)" d="m0 0v2h2c0.125 6.75 0.125 6.75-1 9h-2c-0.66-1.98-1.32-3.96-2-6v4c-0.273 2.68-0.644 5.33-1 8-0.619 0.0412-1.24 0.0825-1.88 0.125-0.701 0.289-1.4 0.578-2.12 0.875-1.3 3-1.3 3-2 6h-3v7c-2.53-3.79-2.41-7.04-2.56-11.4-0.0603-1.52-0.124-3.04-0.191-4.56-0.0359-1.01-0.0359-1.01-0.0725-2.04-0.119-2.01-0.119-2.01-0.74-4.05-0.633-2.79 0.313-4.41 1.57-6.91 2.45-2.45 3.55-2.38 6.94-2.69 0.875-0.0864 1.75-0.173 2.65-0.262 2.41-0.0508 2.41-0.0508 5.41 0.949z" fill="#2C213B"/>
<path transform="translate(1098,1117)" d="m0 0c0.713 0.205 1.43 0.41 2.16 0.621 1.44 0.404 1.44 0.404 2.9 0.816 0.94 0.267 1.88 0.534 2.85 0.809 7.18 1.75 14.3 2.02 21.7 2.18 4.35 0.175 7.18 0.318 10.4 3.57-1.32 0.33-2.64 0.66-4 1v2c-5.5 3.33-11.8 5.01-18.1 3.49-3.39-1.35-4.82-2.42-6.87-5.49-1.11-0.474-2.23-0.949-3.38-1.44-3.47-1.49-5.28-2.66-7.62-5.56v-2z" fill="#2A1E39"/>
<path transform="translate(752,1055)" d="m0 0c4.78 2.05 6.73 5.13 9.06 9.57 1.41 3.67 1.29 6.54 0.938 10.4-0.66 0.33-1.32 0.66-2 1-0.433 1.21-0.433 1.21-0.875 2.44-1.12 2.56-1.12 2.56-3.25 3.88-0.928 0.34-0.928 0.34-1.88 0.688 0.278 0.866 0.278 0.866 0.562 1.75 0.478 2.46 0.195 3.89-0.562 6.25-2 0-2 0-3.68-1.61-1.81-3.27-1.23-5.01-0.512-8.64 1.08-6.29 1.35-12.2 1.2-18.6-0.103-4.98-0.103-4.98 0.987-7.16z" fill="#2A1E39"/>
<path transform="translate(987,998)" d="m0 0c1.94 3.24 2.2 5.5 2.01 9.25-0.0471 1-0.0941 2-0.143 3.04-0.0599 1.04-0.12 2.08-0.182 3.15-0.0483 1.04-0.0967 2.07-0.146 3.14-0.392 7.73-0.392 7.73-1.08 10.9-0.526 2.86-0.449 5.37-0.272 8.27 0.0574 1.08 0.115 2.17 0.174 3.29 0.131 2.27 0.267 4.53 0.406 6.8 0.289 5.6 0.381 9.9-1.77 15.2-0.273 2.12-0.483 4.24-0.625 6.38-0.0748 1.06-0.15 2.12-0.227 3.21-0.049 0.797-0.098 1.59-0.148 2.41h-2c-0.0269-2.46-0.0468-4.92-0.0625-7.38-0.00838-0.699-0.0168-1.4-0.0254-2.12-0.0254-5.28-0.0254-5.28 1.09-7.51 0.0742-2.35 0.0834-4.71 0.0625-7.06-0.00379-0.706-0.00757-1.41-0.0115-2.14-0.0163-3.02-0.0441-6.04-0.0715-9.05-0.0632-7.61-0.116-15.1 0.793-22.7 0.321-2.9 0.323-5.76 0.29-8.67-0.00902-1.02-0.018-2.05-0.0273-3.1-0.0116-0.75-0.0232-1.5-0.0352-2.27h2v-3z" fill="#2B203A"/>
<path transform="translate(968,1020)" d="m0 0h1c0.0275 1.98 0.0466 3.96 0.0625 5.94 0.0116 1.1 0.0232 2.2 0.0352 3.34-0.0712 2.72-0.278 5.12-0.66 7.78-0.761 6.38-0.03 12.7 0.5 19.1 0.7 9.08 1.29 18 1.04 27.1 0.027 2.72 0.402 5.11 1.03 7.75h-3c-0.495 0.99-0.495 0.99-1 2-0.927-7.45-1.09-14.8-1-22.2 0.058-8.99-0.244-17.8-1-26.8-0.328-5.42 0.336-10.3 1.56-15.6 0.52-2.44 0.52-2.44 0.438-5.13 0-2.26 0-2.26 1-3.26z" fill="#2C213B"/>
<path transform="translate(531,1051)" d="m0 0c5.07 7.6 5.07 7.6 6 12 0.371 0.949 0.742 1.9 1.12 2.88 0.99 3.54 0.721 5.59-0.125 9.12-0.0825 0.743-0.165 1.48-0.25 2.25-0.75 1.75-0.75 1.75-3.19 2.81-1.27 0.464-1.27 0.464-2.56 0.938-0.66 0.99-1.32 1.98-2 3-0.0247-4.54-0.0428-9.08-0.0549-13.6-0.00504-1.55-0.0119-3.09-0.0205-4.64-0.0121-2.22-0.0178-4.43-0.0222-6.65-0.00516-0.695-0.0103-1.39-0.0156-2.11-1.96e-4 -1.66 0.0514-3.33 0.113-4.99 0.33-0.33 0.66-0.66 1-1z" fill="#2A1E39"/>
<path transform="translate(561 1140)" d="m0 0c0.928 0.0825 1.86 0.165 2.81 0.25 1 3 1 3 0 6h-1v2h2v5h-14c5.14-12.9 5.14-12.9 10.2-13.2z" fill="#2A1E39"/>
<path transform="translate(1062,1047)" d="m0 0c0.66 0.33 1.32 0.66 2 1 0.99-0.33 1.98-0.66 3-1 1.08 7.19 0.794 13.8 0 21h-2v-4h-2c-0.337-1.6-0.669-3.21-1-4.81-0.186-0.893-0.371-1.79-0.562-2.71-0.438-2.48-0.438-2.48-0.438-5.48-0.66-0.66-1.32-1.32-2-2 0.99-0.66 1.98-1.32 3-2z" fill="#2B203A"/>
<path transform="translate(1161,1149)" d="m0 0v2c0.66 0.33 1.32 0.66 2 1-7.87 4.61-15 5.06-24 5v-3h5c0.33-0.66 0.66-1.32 1-2 2.58-0.852 2.58-0.852 5.81-1.62 1.06-0.26 2.12-0.521 3.21-0.789 2.98-0.586 2.98-0.586 6.98-0.586z" fill="#2B203A"/>
<path transform="translate(609,1068)" d="m0 0c2.58 4.41 3.38 9.41 4.5 14.3 0.939 4.25 0.939 4.25 3.5 7.67 0.124 1.11 0.247 2.23 0.375 3.38 0.688 3.99 1.54 5.14 4.62 7.62-0.33 0.66-0.66 1.32-1 2-0.66-0.66-1.32-1.32-2-2 0.33 1.65 0.66 3.3 1 5-3.63-2.42-4.86-4.91-6-9-0.228-2.73-0.144-5.26 0-8h-2c-1.12-5.75-1.12-5.75 0-8-0.66-0.33-1.32-0.66-2-1-0.562-2.25-0.562-2.25-1-5-0.206-0.887-0.413-1.77-0.625-2.69-0.375-2.31-0.375-2.31 0.625-4.31z" fill="#2B203A"/>
<path transform="translate(541 1144)" d="m0 0c1.05 0.124 2.1 0.247 3.19 0.375 1.26 3.77 0.371 5.37-1 9-7.51 0.369-7.51 0.369-10-1.5-0.33-0.495-0.66-0.99-1-1.5 4.06-5.91 4.06-5.91 8.81-6.38z" fill="#2A1E39"/>
<path transform="translate(630,1126)" d="m0 0h2v2h2v2c0.99 0.33 1.98 0.66 3 1l1 2c2.02 0.652 2.02 0.652 4 1-0.99 0.495-0.99 0.495-2 1v2h2l2 4c-3.97 0-5.34-1.46-8.5-3.81-0.959-0.708-1.92-1.42-2.91-2.14-2.03-1.6-3.84-3.16-5.59-5.04 0.33-0.66 0.66-1.32 1-2h2v-2z" fill="#2A1E39"/>
<path transform="translate(1156 1113)" d="m0 0c0.521 0.236 1.04 0.472 1.58 0.715-0.66 1.32-1.32 2.64-2 4h-3v2c-3.83 2.39-7.6 2.56-12 3v-3c2.08-1.2 4.16-2.39 6.25-3.56 0.587-0.342 1.17-0.684 1.78-1.04 4.43-2.46 4.43-2.46 7.39-2.12z" fill="#2A1E39"/>
<path transform="translate(987,998)" d="m0 0c1.68 2.93 2.23 4.86 2.01 8.22-0.0471 0.786-0.0941 1.57-0.143 2.38-0.0599 0.811-0.12 1.62-0.182 2.46-0.0483 0.815-0.0967 1.63-0.146 2.47-0.221 3.4-0.456 6.21-1.54 9.47h-2v-22h2v-3z" fill="#2C213B"/>
<path transform="translate(625,1118)" d="m0 0c1.33 1.33 2.67 2.67 4 4 0.33-0.99 0.66-1.98 1-3 1.99 2.99 2.94 5.6 4 9h-2v-2h-2l2 4c-1.81-0.188-1.81-0.188-4-1-2.93-3.66-3.32-6.38-3-11z" fill="#2C213B"/>
<path transform="translate(924,696)" d="m0 0c1.32 0.66 2.64 1.32 4 2 0.312 2.25 0.312 2.25 0 5-2.5 2.31-2.5 2.31-5 4v-2h-2c0.557-3.34 1.35-6.03 3-9z" fill="#F75D10"/>
<path transform="translate(542,838)" d="m0 0c1.58 0.247 1.58 0.247 3.19 0.5 5.92 0.757 11.9 0.582 17.8 0.5v2c-5.81 1.94-12.5 1.95-18.2-0.5-1.39-0.742-1.39-0.742-2.81-1.5v-1z" fill="#F75D10"/>
<path transform="translate(1134 1147)" d="m0 0c0.985 0.00902 1.97 0.018 2.98 0.0273 1.12 0.0174 1.12 0.0174 2.27 0.0352-2.4 2.4-3.27 2.31-6.56 2.56-3.02 0.022-3.02 0.022-5.44 1.44 0.99 0.66 1.98 1.32 3 2-1.98 0.33-3.96 0.66-6 1 0.186-0.619 0.371-1.24 0.562-1.88 0.674-2.17 0.674-2.17-0.562-4.12 3.31-1 6.3-1.1 9.75-1.06z" fill="#2C213B"/>
<path transform="translate(984,1057)" d="m0 0c0.66 0.33 1.32 0.66 2 1-0.33 4.95-0.66 9.9-1 15h-2c-0.0269-2.48-0.0468-4.96-0.0625-7.44-0.0126-1.06-0.0126-1.06-0.0254-2.14-0.00865-1.81 0.0357-3.61 0.0879-5.42 0.33-0.33 0.66-0.66 1-1z" fill="#2C213B"/>
<path transform="translate(1033,822)" d="m0 0c7.51 0.492 7.51 0.492 10 3.06 0.33 0.639 0.66 1.28 1 1.94-6.62 0.125-6.62 0.125-10-1-0.688-2.06-0.688-2.06-1-4z" fill="#F75D10"/>
<path transform="translate(413,1021)" d="m0 0c1.32 0.33 2.64 0.66 4 1-0.99 0.33-1.98 0.66-3 1-0.697 1.65-1.36 3.32-2 5-1.62 1.81-1.62 1.81-3 3-0.99-0.33-1.98-0.66-3-1 0.422-0.482 0.843-0.964 1.28-1.46 0.548-0.632 1.1-1.26 1.66-1.91 0.545-0.626 1.09-1.25 1.65-1.9 1.48-1.68 1.48-1.68 2.41-3.73z" fill="#2C213B"/>
<path transform="translate(1050,1098)" d="m0 0h2c0.335 1.96 0.668 3.92 1 5.88 0.186 1.09 0.371 2.18 0.562 3.3 0.438 2.82 0.438 2.82 0.438 4.82h-2c-0.338-1.58-0.67-3.17-1-4.75-0.186-0.882-0.371-1.76-0.562-2.67-0.438-2.58-0.438-2.58-0.438-6.58z" fill="#2C213B"/>
</svg>
